<svg xmlns="http://www.w3.org/2000/svg" xmlns:xlink="http://www.w3.org/1999/xlink" viewBox="0 0 150 150"><defs><style>.cls-1{fill:#fff;}.cls-2{fill:url(#linear-gradient);}.cls-3{fill:url(#linear-gradient-2);}</style><linearGradient id="linear-gradient" x1="-133.92" y1="-97" x2="-133.92" y2="-103.72" gradientTransform="matrix(50.56, 0, 0, -25.07, 6852.56, -2439.45)" gradientUnits="userSpaceOnUse"><stop offset="0" stop-color="#8782ff"/><stop offset="1" stop-color="#5b52ff"/></linearGradient><linearGradient id="linear-gradient-2" x1="-134.06" y1="-70.75" x2="-134.06" y2="-71.89" gradientTransform="matrix(150, 0, 0, -150, 20184.08, -10620.41)" xlink:href="#linear-gradient"/></defs><g id="Layer_2" data-name="Layer 2"><g id="Layer_1-2" data-name="Layer 1"><g id="Group_3" data-name="Group 3"><rect id="Rectangle_10" data-name="Rectangle 10" class="cls-1" x="13.03" y="19.31" width="124.91" height="110.5"/><g id="Group_2" data-name="Group 2"><path id="Path_14" data-name="Path 14" class="cls-2" d="M93.6,74.75a12.54,12.54,0,1,0,.23-25.07H74.49L55.69,74.75Z"/><path id="Path_15" data-name="Path 15" class="cls-3" d="M117,0H33A33,33,0,0,0,0,33H0V117a33,33,0,0,0,33,33H117a33,33,0,0,0,33-33V33A33,33,0,0,0,117,0ZM93.76,100.48H55.22L74.33,126H43.75L15.09,87.74,43.75,49.52H74.33L93.44,24h.32a38.23,38.23,0,1,1,.39,76.45Z"/></g></g></g></g></svg>