<svg xmlns="http://www.w3.org/2000/svg" xmlns:xlink="http://www.w3.org/1999/xlink" viewBox="0 0 400.09 96.12"><defs><style>.cls-1{fill:url(#linear-gradient);}.cls-2{fill:#fff;}</style><linearGradient id="linear-gradient" x1="55.12" x2="55.12" y2="96.12" gradientUnits="userSpaceOnUse"><stop offset="0" stop-color="#8782ff"/><stop offset="1" stop-color="#5b52ff"/></linearGradient></defs><g id="Layer_2" data-name="Layer 2"><g id="Layer_1-2" data-name="Layer 1"><path class="cls-1" d="M74.2,0h-.31l-18,24H74.2a12,12,0,0,1,0,24H37.85l18-24H27L0,60.08l27,36H55.87l-18-24H74.2A36,36,0,0,0,74.2,0Z"/><path class="cls-2" d="M197,57.55a23.64,23.64,0,0,1-5.25,7.61,24.53,24.53,0,0,1-7.79,5.08,24.29,24.29,0,0,1-9.46,1.85H158.21v-48h16.26A24.77,24.77,0,0,1,191.72,31,23.75,23.75,0,0,1,197,38.61a24.31,24.31,0,0,1,0,18.94Zm-9.74-15.06a14.16,14.16,0,0,0-3-4.56,14,14,0,0,0-4.49-3,13.73,13.73,0,0,0-5.56-1.14H168.5V62.42h5.69a14.06,14.06,0,0,0,10.05-4.19,14.74,14.74,0,0,0,3-15.74Z"/><path class="cls-2" d="M206.09,72.09v-48h16a23.26,23.26,0,0,1,7.13,1,15.76,15.76,0,0,1,5.52,3,13.69,13.69,0,0,1,3.6,4.81,15.53,15.53,0,0,1,1.31,6.55,13.63,13.63,0,0,1-2.78,8.68,16.23,16.23,0,0,1-7.1,5.18L243,72.09H230.86l-11.8-17.56h-2.75V72.09Zm16-26.07a7.76,7.76,0,0,0,5.12-1.68,5.79,5.79,0,0,0,2-4.7,5.68,5.68,0,0,0-2-4.7,8,8,0,0,0-5.12-1.61h-5.83V46Z"/><path class="cls-2" d="M271.09,70.58a18.33,18.33,0,0,1-9.57,2.4,19.55,19.55,0,0,1-7.27-1.3A16.43,16.43,0,0,1,248.59,68a17,17,0,0,1-3.71-5.66,19,19,0,0,1-1.33-7.2,18.54,18.54,0,0,1,1.33-7.1,17.38,17.38,0,0,1,3.71-5.66,16.93,16.93,0,0,1,5.55-3.74,19,19,0,0,1,14,0,15.64,15.64,0,0,1,5.45,3.74,17.2,17.2,0,0,1,3.54,5.73,20.42,20.42,0,0,1,1.27,7.3c0,.6,0,1.1,0,1.51a7.91,7.91,0,0,1-.1,1h-24.9a6.83,6.83,0,0,0,.82,2.75A7.49,7.49,0,0,0,256,62.8a8.94,8.94,0,0,0,2.54,1.44,8.64,8.64,0,0,0,3,.51,7.9,7.9,0,0,0,4.46-1.1,9.38,9.38,0,0,0,2.81-3L277.23,64A15.9,15.9,0,0,1,271.09,70.58Zm-4.91-23.7A7.63,7.63,0,0,0,261,45.13a7.43,7.43,0,0,0-2.81.52,8.13,8.13,0,0,0-2.34,1.4,8.51,8.51,0,0,0-1.68,2,6,6,0,0,0-.79,2.33h15.17A6.8,6.8,0,0,0,266.18,46.88Z"/><path class="cls-2" d="M294.86,38.2h8.57v8.23h-8.57V58.85a5.29,5.29,0,0,0,1.2,3.91,5.07,5.07,0,0,0,3.67,1.17,7.89,7.89,0,0,0,1.92-.24,5.48,5.48,0,0,0,1.78-.79v8.64a14.23,14.23,0,0,1-2.88,1,17.44,17.44,0,0,1-4.11.42A11.3,11.3,0,0,1,288,69.79q-3.09-3.12-3.09-8.81V46.43h-4.8V38.2h4.8v-10h9.95Z"/><path class="cls-2" d="M327.65,47.53a7.93,7.93,0,0,0-6.52,2.88,12.26,12.26,0,0,0-2.33,7.89V72.09h-9.95V38.2h9.88v5.56a11,11,0,0,1,3.91-4.63,10.33,10.33,0,0,1,5.83-1.68,7.49,7.49,0,0,1,1.07.07,2.77,2.77,0,0,1,.65.13V47.94A6,6,0,0,0,327.65,47.53Z"/><path class="cls-2" d="M334,48.12a17.17,17.17,0,0,1,3.87-5.66,18.21,18.21,0,0,1,5.83-3.78,20,20,0,0,1,14.55,0,18.21,18.21,0,0,1,5.83,3.78,17.57,17.57,0,0,1,5.28,12.69,17.57,17.57,0,0,1-5.28,12.69,18,18,0,0,1-5.83,3.77,20,20,0,0,1-14.55,0,18,18,0,0,1-5.83-3.77A17.28,17.28,0,0,1,334,62.18a18.23,18.23,0,0,1,0-14.06Zm9.15,10.46A9.3,9.3,0,0,0,345,61.32a8.4,8.4,0,0,0,2.68,1.85,8.28,8.28,0,0,0,6.62,0A8.31,8.31,0,0,0,357,61.32a9.3,9.3,0,0,0,1.82-2.74,9,9,0,0,0,0-6.86A9.35,9.35,0,0,0,357,49a8.63,8.63,0,0,0-2.71-1.85,8.28,8.28,0,0,0-6.62,0A8.73,8.73,0,0,0,345,49a9.35,9.35,0,0,0-1.82,2.75,9,9,0,0,0,0,6.86Z"/><path class="cls-2" d="M384.11,46a2,2,0,0,0-.89,1.68c0,1.23.93,2.1,2.81,2.61l4.25,1.09a15.4,15.4,0,0,1,7.31,3.81,8.59,8.59,0,0,1,2.5,6.21,10.55,10.55,0,0,1-1,4.67,11.14,11.14,0,0,1-2.84,3.67,13.46,13.46,0,0,1-4.33,2.4,16.74,16.74,0,0,1-5.45.85,17.29,17.29,0,0,1-8.85-2.19,12.87,12.87,0,0,1-5.49-6.11l8.1-4.46a8.26,8.26,0,0,0,2.67,3.37,6.16,6.16,0,0,0,3.64,1.23,4.48,4.48,0,0,0,2.57-.68,2.22,2.22,0,0,0,1-1.93c0-1.19-1-2-3.09-2.53l-4-1q-9.67-2.27-9.67-10.43A10.11,10.11,0,0,1,377,40.4a12.84,12.84,0,0,1,4.15-2.27,16.53,16.53,0,0,1,5.32-.82,15.85,15.85,0,0,1,4.25.58,16.59,16.59,0,0,1,3.84,1.62A13.72,13.72,0,0,1,397.69,42a12,12,0,0,1,2.2,3.22l-8.17,4.32a6.83,6.83,0,0,0-2.26-3.05,5.08,5.08,0,0,0-3.09-1.13A3.69,3.69,0,0,0,384.11,46Z"/></g></g></svg>